<svg xmlns="http://www.w3.org/2000/svg" width="541.49182mm" height="199.99998mm" viewBox="0 0 541.49182 199.99998"><defs><linearGradient id="a" x1="0" x2="1" y1="0" y2="0" gradientTransform="scale(-203.65118) rotate(-30 -2.538 2.059)" gradientUnits="userSpaceOnUse" spreadMethod="pad"><stop offset="0" style="stop-opacity:1;stop-color:#fbc707"/><stop offset="0.76553506" style="stop-opacity:1;stop-color:#fbc707"/><stop offset="1" style="stop-opacity:1;stop-color:#bf5b23"/></linearGradient></defs><path d="M-229.856 374.972c1.266 0 4.406-.158 4.406-3.775 0-1.956-.55-3.319-2.666-3.615v-.04c1.621-.318 2.43-1.502 2.43-3.142 0-3.045-1.877-3.695-4.15-3.695h-5.296v14.267zm-2.292-12.074h1.838c1.008 0 1.72.77 1.72 1.817 0 1.384-.91 1.82-1.562 1.82h-1.996zm0 5.83h1.74c1.5 0 1.976.767 1.976 2.033 0 1.996-1.424 2.017-2.057 2.017h-1.659zM-218.358 373.965h-.04c-.553.888-1.304 1.203-2.351 1.203-1.325 0-2.49-.788-2.49-2.172v-8.004h2.787v6.914c0 .892.157 1.544 1.047 1.544.89 0 1.047-.652 1.047-1.544v-6.914h2.787v8.004c0 .654.04 1.323.098 1.977h-2.885zM-211.165 371.77c-.019.454 0 .89.139 1.205.158.317.454.475 1.007.475.553 0 1.029-.355 1.029-1.026 0-2.116-4.9-1.643-4.9-4.822 0-2.156 2.132-2.808 3.93-2.808 1.9 0 3.617.909 3.46 3.064h-2.728c0-.69-.08-1.108-.275-1.287-.18-.176-.417-.214-.713-.214-.612 0-.949.393-.949 1.066 0 1.581 4.902 1.501 4.902 4.702 0 1.74-1.423 3.043-3.735 3.043-2.43 0-4.052-.612-3.892-3.398zM-197.019 373.115c0 .612.08 1.245.139 1.857h-2.589l-.118-1.323h-.04c-.593 1.026-1.402 1.52-2.607 1.52-1.937 0-2.65-1.442-2.65-3.181 0-3.3 2.55-3.439 5.14-3.399v-.771c0-.85-.12-1.462-1.128-1.462-.967 0-1.047.732-1.047 1.523h-2.727c0-1.208.376-1.977 1.028-2.431.633-.476 1.541-.655 2.608-.655 3.537 0 3.991 1.525 3.991 3.342zm-5.137-1.245c0 .71.117 1.58 1.026 1.58 1.642 0 1.386-2.213 1.386-3.3-1.386.059-2.412-.057-2.412 1.72M-191.92 366.001h.04c.275-.456.611-.75.988-.927.395-.2.85-.28 1.363-.28 1.324 0 2.49.793 2.49 2.174v8.004h-2.787v-6.876c0-.892-.158-1.582-1.047-1.582-.89 0-1.048.69-1.048 1.582v6.876h-2.786v-9.978h2.786zM-185.064 370.644h4.84v-2.014h-4.84zM-170.583 360.704v10.949c0 2.49-2.014 3.556-4.13 3.556-4.17 0-4.347-1.742-4.347-4.982h3.043c0 1.148-.258 2.847 1.304 2.847.671 0 1.146-.612 1.146-1.224v-11.146zM-165.344 362.897h-2.789v-2.194h2.789zm0 12.075h-2.789v-9.979h2.789zM-160.093 366.001h.04c.275-.456.612-.75.988-.927.395-.2.852-.28 1.365-.28 1.323 0 2.488.793 2.488 2.174v8.004H-158v-6.876c0-.892-.157-1.582-1.047-1.582-.89 0-1.047.69-1.047 1.582v6.876h-2.787v-9.978h2.787zM-148.118 374.972v-6.877c0-.89-.156-1.58-1.048-1.58-.887 0-1.047.69-1.047 1.58v6.877h-2.784v-14.267h2.784V366h.04c.276-.454.612-.75.986-.927.398-.2.85-.28 1.365-.28 1.325 0 2.49.793 2.49 2.175v8.004zM-135.55 373.115c0 .612.078 1.245.14 1.857H-138l-.12-1.323h-.037c-.593 1.026-1.405 1.52-2.608 1.52-1.937 0-2.65-1.442-2.65-3.181 0-3.3 2.551-3.439 5.138-3.399v-.771c0-.85-.12-1.462-1.125-1.462-.97 0-1.047.732-1.047 1.523h-2.728c0-1.208.374-1.977 1.026-2.431.633-.476 1.542-.655 2.61-.655 3.535 0 3.992 1.525 3.992 3.342zm-5.137-1.245c0 .71.118 1.58 1.026 1.58 1.64 0 1.384-2.213 1.384-3.3-1.384.059-2.41-.057-2.41 1.72M-125.332 370.427c.098-3.201-.316-5.634-4.072-5.634-3.676 0-4.071 2.334-4.071 5.062 0 3.12.475 5.314 4.071 5.314 1.306 0 2.292-.355 2.944-.97.671-.611 1.029-1.499 1.069-2.588h-2.827c0 .83-.197 1.779-1.186 1.779-1.226 0-1.264-1.78-1.264-2.963zm-5.336-1.56c0-.85-.02-2.352 1.264-2.352 1.323 0 1.285 1.384 1.285 2.351zM-118.892 374.972v-14.267h7.409v2.193h-4.425v3.655h4.23v2.194h-4.23v6.225zM-107.554 364.993v1.282h.043c.513-1.146 1.461-1.482 2.586-1.482v2.492c-2.45-.158-2.49 1.264-2.49 2.252v5.434h-2.786v-9.978zM-101.056 370.427c0 1.184.04 2.963 1.266 2.963.987 0 1.184-.949 1.184-1.78h2.827c-.04 1.09-.396 1.978-1.069 2.59-.652.614-1.638.969-2.942.969-3.596 0-4.071-2.193-4.071-5.314 0-2.728.395-5.062 4.071-5.062 3.754 0 4.168 2.433 4.07 5.634zm2.55-1.56c0-.968.037-2.352-1.284-2.352-1.287 0-1.266 1.502-1.266 2.351zM-85.84 370.427c.1-3.201-.315-5.634-4.071-5.634-3.676 0-4.07 2.334-4.07 5.062 0 3.12.474 5.314 4.07 5.314 1.306 0 2.292-.355 2.946-.97.671-.611 1.026-1.499 1.066-2.588h-2.826c0 .83-.198 1.779-1.186 1.779-1.226 0-1.264-1.78-1.264-2.963zm-5.335-1.56c0-.85-.021-2.352 1.264-2.352 1.325 0 1.285 1.384 1.285 2.351zM-79.34 374.972v-14.267h7.785v2.193h-4.8v3.519h4.424v2.193h-4.425v4.168h4.96v2.194zM-64.518 368.55c0-1.483-.377-1.977-1.247-1.977-1.184 0-1.283 1.047-1.283 3.123 0 3.04.256 3.695 1.283 3.695.87 0 1.287-.789 1.287-2.095h2.786c0 2.707-1.464 3.872-4.073 3.872-3.597 0-4.07-2.194-4.07-5.314 0-2.728.396-5.06 4.07-5.06 2.57 0 4.031 1.146 4.031 3.756zM-55.882 375.169c3.596 0 4.07-2.194 4.07-5.314 0-2.728-.397-5.062-4.07-5.062-3.677 0-4.074 2.334-4.074 5.062 0 3.12.475 5.314 4.074 5.314m0-1.78c-1.029 0-1.285-.651-1.285-3.694 0-2.076.098-3.123 1.285-3.123 1.184 0 1.282 1.047 1.282 3.123 0 3.043-.256 3.695-1.282 3.695M-47.05 366.001h.04c.276-.456.612-.75.987-.927.395-.2.851-.28 1.365-.28 1.324 0 2.487.793 2.487 2.174v8.004h-2.784v-6.876c0-.892-.158-1.582-1.047-1.582-.89 0-1.048.69-1.048 1.582v6.876h-2.786v-9.978h2.786zM-36.122 375.169c3.596 0 4.072-2.194 4.072-5.314 0-2.728-.398-5.062-4.072-5.062-3.676 0-4.071 2.334-4.071 5.062 0 3.12.475 5.314 4.071 5.314m0-1.78c-1.028 0-1.285-.651-1.285-3.694 0-2.076.1-3.123 1.285-3.123 1.184 0 1.283 1.047 1.283 3.123 0 3.043-.257 3.695-1.283 3.695M-27.506 366.001h.04c.553-.892 1.303-1.207 2.35-1.207.987 0 1.778.475 2.234 1.264.652-.869 1.443-1.264 2.589-1.264 1.325 0 2.49.793 2.49 2.174v8.004h-2.787v-6.876c0-.892-.157-1.582-1.047-1.582-.89 0-1.047.69-1.047 1.582v6.876h-2.728v-6.876c0-.892-.158-1.582-1.047-1.582-.89 0-1.047.69-1.047 1.582v6.876h-2.787v-9.978h2.787zM-12.785 364.993h-2.787v9.98h2.787zm-2.787-2.096h2.787v-2.194h-2.787zM-5.24 368.55c0-1.483-.377-1.977-1.245-1.977-1.186 0-1.285 1.047-1.285 3.123 0 3.04.256 3.695 1.285 3.695.868 0 1.285-.789 1.285-2.095h2.786c0 2.707-1.464 3.872-4.071 3.872-3.597 0-4.07-2.194-4.07-5.314 0-2.728.394-5.06 4.07-5.06 2.57 0 4.031 1.146 4.031 3.756zM3.55 360.704h8.597v2.59l-6.006 9.484h6.145v2.193H3.275v-2.608l5.99-9.465H3.55ZM17.66 375.169c3.598 0 4.073-2.194 4.073-5.314 0-2.728-.398-5.062-4.074-5.062-3.671 0-4.071 2.334-4.071 5.062 0 3.12.477 5.314 4.071 5.314m0-1.78c-1.026 0-1.28-.651-1.28-3.694 0-2.076.099-3.123 1.28-3.123 1.186 0 1.285 1.047 1.285 3.123 0 3.043-.254 3.695-1.285 3.695M26.494 366.001h.043c.273-.456.612-.75.984-.927.395-.2.851-.28 1.365-.28 1.322 0 2.487.793 2.487 2.174v8.004H28.59v-6.876c0-.892-.16-1.582-1.047-1.582-.888 0-1.048.69-1.048 1.582v6.876H23.71v-9.978h2.784zM41.495 370.427c.099-3.201-.316-5.634-4.072-5.634-3.676 0-4.073 2.334-4.073 5.062 0 3.12.477 5.314 4.073 5.314 1.304 0 2.293-.355 2.942-.97.673-.611 1.03-1.499 1.069-2.588h-2.827c0 .83-.197 1.779-1.184 1.779-1.228 0-1.264-1.78-1.264-2.963zm-5.336-1.56c0-.85-.02-2.352 1.264-2.352 1.323 0 1.283 1.384 1.283 2.351zM-107.82 323.397v-1.935h-12.976v3.55h8.252c0 4.223-4 8.582-9.337 10.208l1.558 3.323c4.923-1.523 12.502-5.998 12.502-15.146M-24.851 323.159c2.78 0 5.011 2.242 5.011 4.954 0 2.574-2.43 4.86-5.167 4.86-2.683 0-4.967-2.286-4.967-4.86 0-2.712 2.442-4.954 5.123-4.954m-.017 13.457c5.603 0 9.39-3.853 9.39-8.509 0-4.784-3.787-8.601-9.39-8.601-5.56 0-9.39 3.817-9.39 8.601 0 4.656 3.83 8.509 9.39 8.509M20.588 329.035c0-2.858 1.905-4.545 3.996-4.545 2.174 0 3.915 1.687 3.915 4.545 0 2.731-1.899 4.468-4.025 4.468-2.103 0-3.886-1.737-3.886-4.468m12.187-.004c0-4.579-3.31-8.24-8.195-8.24-4.85 0-8.198 3.661-8.198 8.24 0 4.468 3.348 8.161 8.197 8.161 4.886 0 8.196-3.693 8.196-8.161M12.525 321.462H-7.863v3.79h15.94c.057 1.996-.305 9.093-.76 11.991h-17.672v3.645H.454v9.695h4.185v-9.695h10.795v-3.645H11.49c.628-3.802 1.108-12.965 1.034-15.78M-42.591 319.945h-4.193v30.636h4.193v-18.355h4.128v-3.722h-4.128zM-107.656 349.756c-2.362 0-4.374-1.884-4.374-4.004 0-2.24 2.14-4.088 4.513-4.088 2.452 0 4.433 1.849 4.433 4.088 0 2.12-2.15 4.004-4.572 4.004m.13-11.791c-5.203 0-8.788 3.457-8.788 7.78 0 4.222 3.585 7.708 8.788 7.708 5.251 0 8.8-3.486 8.8-7.707 0-4.324-3.549-7.781-8.8-7.781M-102.645 323.902h-4.025v3.5h4.025v3.03h-4.025v3.504h4.025v4.348h4.185v-18.34h-4.185zM-154.398 319.945h-4.185v22.679h4.185zM-153.963 352.336v-3.65h-15.062v-8.21h-4.189v11.86zM-73.27 350.582h3.883v-30.637h-3.882zM-78.851 327.905h-4.132v3.65h4.132v18.217h3.745v-29.387h-3.745ZM-128.559 330.73h-1.956v-10.346h-3.745v29.39h3.745v-15.125h1.956v15.932h3.874v-30.636h-3.874zM37.3 323.337h-4.037v3.65h4.038v3.88h-4.038v3.642h4.038v3.085h4.185v-17.649H37.3ZM22.445 339.508v3.718H37.3v9.11h4.187v-12.828zM-184.46 319.945h-4.185v22.678h4.185v-11.068h4.128v-3.859h-4.128zM-184.025 352.336v-3.65h-14.618v-8.21h-4.179v11.86zM-235.165 342.63h10.811v7.951h4.183v-7.951h10.803v-3.65h-25.797zM-37.703 342.63h5.606v7.951h4.185v-7.951h6.219v7.951h4.187v-7.951h5.598v-3.65h-25.795ZM-216.451 332.086h-11.623v-4.313h11.623zm4.187 3.649V320.98h-4.187v3.184h-11.626v-3.184h-4.187v14.755zM-199.481 331.844c1.646 3.112 4.694 5.564 7.48 7.135l2.198-2.942c-4.072-2.534-7.399-6.418-7.399-13.591v-1.466h-4.555v1.466c0 7.173-3.34 11.057-7.406 13.591l2.201 2.942c2.791-1.57 5.834-4.023 7.48-7.135M-169.785 331.844c1.647 3.112 4.694 5.564 7.48 7.135l2.198-2.942c-3.558-2.21-6.553-5.46-7.242-11.026h5.417v-3.55h-15.705v3.55h5.421c-.698 5.567-3.684 8.816-7.238 11.026l2.189 2.942c2.79-1.57 5.834-4.023 7.48-7.135M-54.946 325.116h5.564v-3.653H-65.09v3.653h5.565c-.143 6.873-3.277 11.053-7.25 13.53l2.062 2.802c2.92-1.651 5.94-4.166 7.472-7.476 1.55 3.31 4.563 5.825 7.48 7.476l2.07-2.801c-3.975-2.478-7.111-6.658-7.254-13.531" style="fill:#231f20;fill-opacity:1;fill-rule:nonzero;stroke:none;stroke-width:2.10299" transform="matrix(1.06386 0 0 1.06386 250.184 -209.671)"/><path d="M-85.431 325.054v-.044h4.443v-3.548h-13.17v3.548h4.435v.044c0 7.39-2.72 10.738-6.095 13.74l2.267 2.653c2.682-1.943 4.703-4.343 5.975-7.2 1.278 2.857 3.3 5.257 5.98 7.2l2.255-2.654c-3.363-3-6.09-6.349-6.09-13.739M-143.255 336.781c-1.882 0-3.478-1.958-3.478-4.158 0-2.323 1.695-4.233 3.59-4.233 1.943 0 3.511 1.91 3.511 4.233 0 2.2-1.714 4.158-3.623 4.158m3.283-11.255h4.029v-3.445h-4.98v-2.576h-4.46v2.576h-4.978v3.445h4.046c-2.603 1.21-4.248 3.92-4.248 7.093 0 4.215 3.02 7.708 7.403 7.708 4.43 0 7.417-3.493 7.417-7.708 0-3.173-1.617-5.884-4.23-7.093M79.866 280.55c-.103.079-.28.211.135.272 1.558.498 6.126.267 20.033 14.103 10.506 5.238 33.117 1.02 34.543.117 0 0-34.93-27.86-54.711-14.491" style="fill:#231f20;fill-opacity:1;fill-rule:nonzero;stroke:none;stroke-width:2.10299" transform="matrix(1.06386 0 0 1.06386 250.184 -209.671)"/><path d="M202.577 223.336c-55.571 50.916-75.896 69.052-88.775 71.794-4.191 1.214-11.251 1.144-13.77-.206 8.803 8.242 15.602 15.785 30.995 14.342 8.24-.771 19.537-5.148 36.475-17.227 13.021-9.283 76.513-59.321 106.318-92.914 0 0-5.106-2.04-13.84-2.04-12.85 0-33.555 4.416-57.403 26.251" style="fill:url(#a);stroke:none;stroke-width:2.10299" transform="matrix(1.06386 0 0 1.06386 250.184 -209.671)"/><path d="M265.812 319.986h-39.271v8.963h20.397l-22.948 45.679v.364H265.1v-8.96h-22.077l22.805-45.67v-.385zM123.174 362.966c0 6.809-2.41 12.8-10.14 14.38v7.732c14.794-.515 23.065-8.687 23.065-23.963v-41.128h-12.925z" style="fill:#231f20;fill-opacity:1;fill-rule:nonzero;stroke:none;stroke-width:2.10299" transform="matrix(1.06386 0 0 1.06386 250.184 -209.671)"/><path d="M97.2 366.034h-9.452V351.6H97.2c3.89 0 6.19 3.396 6.19 6.948 0 3.52-2.3 7.485-6.19 7.485m-9.45-37.086h8.554c3.771 0 5.985 3.007 5.985 6.723 0 3.903-2.214 6.967-5.985 6.967h-8.555Zm28.575 30.405c-.055-5.88-3.8-11.216-9.714-12.976 1.626-.364 8.313-3.701 8.597-10.706.513-12.936-11.953-15.684-20.468-15.684H74.834v55.006h19.421c13.45 0 22.178-4.074 22.069-15.64M221.045 374.992v-8.959h-22.262v-14.437h21.888v-8.958h-21.888v-13.69h22.262v-8.962h-35.18v55.006zM144.463 319.986v55.006h12.914v-23.396h22.627v-8.959h-22.627V328.95h23.005v-8.963z" style="fill:#231f20;fill-opacity:1;fill-rule:nonzero;stroke:none;stroke-width:2.10299" transform="matrix(1.06386 0 0 1.06386 250.184 -209.671)"/></svg>