<?xml version="1.0" encoding="utf-8"?>
<!-- Generator: Adobe Illustrator 25.4.1, SVG Export Plug-In . SVG Version: 6.00 Build 0)  -->
<svg version="1.0" id="_x32__line" xmlns="http://www.w3.org/2000/svg" xmlns:xlink="http://www.w3.org/1999/xlink" x="0px" y="0px"
	 viewBox="0 0 316.64 48.842" enable-background="new 0 0 316.64 48.842" xml:space="preserve">
<g>
	<g>
		<path fill="#1B3D6D" d="M149.19,10.571c0,4.918-2.821,7.474-7.04,7.474c-4.171,0-7.016-2.556-7.016-7.329V0.903h1.905v9.692
			c0,3.641,1.929,5.69,5.159,5.69c3.11,0,5.087-1.881,5.087-5.569V0.903h1.905V10.571z"/>
		<path fill="#1B3D6D" d="M154.753,17.779h-1.856V5.315h1.856v2.17c0.82-1.35,2.122-2.435,4.268-2.435
			c3.013,0,4.773,2.025,4.773,4.991v7.739h-1.856v-7.281c0-2.314-1.254-3.761-3.448-3.761c-2.146,0-3.737,1.567-3.737,3.906V17.779z
			"/>
		<path fill="#1B3D6D" d="M167.309,2.591V0.542h2.122v2.049H167.309z M167.43,17.779V5.315h1.856v12.464H167.43z"/>
		<path fill="#1B3D6D" d="M182.351,5.315h2.001l-5.424,12.561h-1.64l-5.4-12.561h2.049l4.195,10.343L182.351,5.315z"/>
		<path fill="#1B3D6D" d="M191.556,16.453c1.711,0,2.917-0.699,3.93-1.76l1.157,1.037c-1.254,1.398-2.772,2.339-5.135,2.339
			c-3.423,0-6.22-2.628-6.22-6.51c0-3.616,2.532-6.509,5.979-6.509c3.689,0,5.811,2.941,5.811,6.606c0,0.168,0,0.361-0.024,0.579
			h-9.884C187.433,14.935,189.362,16.453,191.556,16.453z M195.196,10.86c-0.193-2.266-1.495-4.243-3.978-4.243
			c-2.169,0-3.809,1.809-4.05,4.243H195.196z"/>
		<path fill="#1B3D6D" d="M201.701,17.779h-1.856V5.315h1.856V8.57c0.916-2.073,2.724-3.568,5.087-3.472v2.001h-0.145
			c-2.724,0-4.942,1.953-4.942,5.714V17.779z"/>
		<path fill="#1B3D6D" d="M213.246,18.021c-1.784,0-3.761-0.699-5.159-1.833l0.94-1.326c1.35,1.012,2.845,1.591,4.315,1.591
			c1.495,0,2.58-0.771,2.58-1.977v-0.048c0-1.254-1.471-1.736-3.11-2.194c-1.953-0.555-4.123-1.229-4.123-3.52V8.666
			c0-2.146,1.784-3.568,4.243-3.568c1.519,0,3.207,0.53,4.484,1.374l-0.844,1.398c-1.157-0.748-2.483-1.206-3.688-1.206
			c-1.471,0-2.411,0.771-2.411,1.808V8.52c0,1.181,1.543,1.639,3.207,2.146c1.929,0.579,4.002,1.326,4.002,3.568v0.048
			C217.682,16.646,215.729,18.021,213.246,18.021z"/>
		<path fill="#1B3D6D" d="M220.692,2.591V0.542h2.122v2.049H220.692z M220.812,17.779V5.315h1.856v12.464H220.812z"/>
		<path fill="#1B3D6D" d="M229.007,14.236c0,1.519,0.844,2.073,2.098,2.073c0.627,0,1.157-0.121,1.808-0.434v1.591
			c-0.651,0.337-1.35,0.53-2.242,0.53c-2.001,0-3.52-0.988-3.52-3.52V6.954h-1.736v-1.64h1.736V1.553h1.856v3.761h3.954v1.64h-3.954
			V14.236z"/>
		<path fill="#1B3D6D" d="M241.83,18.189c-1.061,2.58-2.267,3.52-4.147,3.52c-1.037,0-1.808-0.217-2.652-0.627l0.627-1.47
			c0.603,0.313,1.157,0.458,1.953,0.458c1.109,0,1.808-0.579,2.556-2.339l-5.666-12.416h2.049l4.532,10.391l4.002-10.391h1.977
			L241.83,18.189z"/>
		<path fill="#1B3D6D" d="M261.954,18.069c-3.737,0-6.461-2.941-6.461-6.485s2.749-6.534,6.509-6.534
			c3.737,0,6.485,2.941,6.485,6.485S265.715,18.069,261.954,18.069z M261.954,6.689c-2.7,0-4.557,2.146-4.557,4.846
			s1.977,4.87,4.604,4.87c2.7,0,4.581-2.146,4.581-4.822C266.583,8.859,264.582,6.689,261.954,6.689z"/>
		<path fill="#1B3D6D" d="M277.837,5.363v1.591h-3.93v10.825h-1.856V6.955h-1.712V5.34h1.712V4.255c0-2.725,1.374-4.171,3.761-4.171
			c0.868,0,1.446,0.096,2.049,0.313v1.615c-0.675-0.193-1.182-0.313-1.809-0.313c-1.446,0-2.169,0.868-2.169,2.652v1.013h3.954
			V5.363z"/>
		<path fill="#1B3D6D" d="M143.114,46.19c-4.87,0-8.462-3.833-8.462-8.703c0-4.822,3.568-8.751,8.534-8.751
			c3.062,0,4.894,1.085,6.582,2.676l-1.302,1.398c-1.422-1.35-3.013-2.314-5.304-2.314c-3.737,0-6.534,3.014-6.534,6.943
			c0,3.93,2.821,6.992,6.534,6.992c2.314,0,3.833-0.892,5.449-2.435l1.253,1.229C148.105,45.009,146.176,46.19,143.114,46.19z"/>
		<path fill="#1B3D6D" d="M153.114,35.823l-0.555-1.519c1.374-0.627,2.724-1.037,4.532-1.037c3.399,0,5.304,1.735,5.304,5.015V45.9
			h-1.784v-1.88c-0.868,1.133-2.314,2.146-4.508,2.146c-2.314,0-4.653-1.302-4.653-3.906c0-2.652,2.169-4.05,5.328-4.05
			c1.591,0,2.725,0.217,3.833,0.531v-0.434c0-2.242-1.374-3.399-3.713-3.399C155.429,34.907,154.271,35.293,153.114,35.823z
			 M153.331,42.188c0,1.591,1.446,2.507,3.134,2.507c2.29,0,4.17-1.398,4.17-3.375v-1.206c-0.916-0.265-2.146-0.53-3.664-0.53
			C154.633,39.585,153.331,40.597,153.331,42.188z"/>
		<path fill="#1B3D6D" d="M166.032,45.901v-17.6h1.856v17.6H166.032z"/>
		<path fill="#1B3D6D" d="M171.768,30.713v-2.05h2.122v2.049h-2.122V30.713z M171.888,45.901V33.437h1.856v12.464H171.888z"/>
		<path fill="#1B3D6D" d="M184.061,33.485v1.591h-3.93v10.825h-1.856V35.076h-1.711V33.46h1.711v-1.084
			c0-2.725,1.375-4.171,3.761-4.171c0.868,0,1.446,0.096,2.049,0.313v1.615c-0.675-0.193-1.181-0.313-1.808-0.313
			c-1.446,0-2.169,0.868-2.169,2.652v1.013H184.061z"/>
		<path fill="#1B3D6D" d="M191.387,46.19c-3.737,0-6.461-2.941-6.461-6.485c0-3.544,2.749-6.534,6.51-6.534
			c3.737,0,6.485,2.941,6.485,6.485S195.148,46.19,191.387,46.19z M191.387,34.811c-2.7,0-4.557,2.146-4.557,4.846
			c0,2.7,1.977,4.87,4.605,4.87c2.7,0,4.581-2.146,4.581-4.822C196.016,36.981,194.015,34.811,191.387,34.811z"/>
		<path fill="#1B3D6D" d="M202.641,45.901h-1.856V33.437h1.856v3.255c0.916-2.074,2.724-3.568,5.087-3.472v2.001h-0.145
			c-2.724,0-4.942,1.953-4.942,5.714V45.901z"/>
		<path fill="#1B3D6D" d="M211.92,45.901h-1.856V33.437h1.856v2.17c0.82-1.35,2.122-2.435,4.268-2.435
			c3.013,0,4.773,2.025,4.773,4.991v7.739h-1.856v-7.281c0-2.314-1.254-3.761-3.448-3.761c-2.146,0-3.737,1.567-3.737,3.906V45.901z
			"/>
		<path fill="#1B3D6D" d="M224.476,30.713v-2.05h2.122v2.049h-2.122V30.713z M224.597,45.901V33.437h1.856v12.464H224.597z"/>
		<path fill="#1B3D6D" d="M231.008,35.823l-0.555-1.519c1.374-0.627,2.724-1.037,4.532-1.037c3.399,0,5.304,1.735,5.304,5.015V45.9
			h-1.784v-1.88c-0.868,1.133-2.314,2.146-4.508,2.146c-2.314,0-4.653-1.302-4.653-3.906c0-2.652,2.169-4.05,5.328-4.05
			c1.591,0,2.725,0.217,3.833,0.531v-0.434c0-2.242-1.374-3.399-3.713-3.399C233.322,34.907,232.165,35.293,231.008,35.823z
			 M231.225,42.188c0,1.591,1.446,2.507,3.134,2.507c2.29,0,4.17-1.398,4.17-3.375v-1.206c-0.916-0.265-2.146-0.53-3.664-0.53
			C232.526,39.585,231.225,40.597,231.225,42.188z"/>
		<path fill="#1B3D6D" d="M244.407,45.901h-0.868V43.37h2.218v2.169c0,1.953-0.844,2.893-2.676,3.303l-0.29-0.844
			C243.998,47.565,244.504,46.938,244.407,45.901z"/>
		<path fill="#1B3D6D" d="M258.314,29.025v16.876h-1.904V29.025H258.314z"/>
		<path fill="#1B3D6D" d="M264.315,45.901h-1.856V33.437h1.856v3.255c0.916-2.074,2.724-3.568,5.087-3.472v2.001h-0.145
			c-2.724,0-4.942,1.953-4.942,5.714L264.315,45.901L264.315,45.901z"/>
		<path fill="#1B3D6D" d="M280.971,33.437h2.001l-5.424,12.561h-1.64l-5.4-12.561h2.049l4.195,10.343L280.971,33.437z"/>
		<path fill="#1B3D6D" d="M285.451,30.713v-2.05h2.122v2.049h-2.122V30.713z M285.572,45.901V33.437h1.856v12.464H285.572z"/>
		<path fill="#1B3D6D" d="M293.115,45.901h-1.856V33.437h1.856v2.17c0.82-1.35,2.122-2.435,4.268-2.435
			c3.013,0,4.773,2.025,4.773,4.991v7.739H300.3v-7.281c0-2.314-1.254-3.761-3.448-3.761c-2.146,0-3.737,1.567-3.737,3.906V45.901z"
			/>
		<path fill="#1B3D6D" d="M311.12,44.575c1.712,0,2.917-0.699,3.93-1.76l1.157,1.037c-1.254,1.398-2.772,2.338-5.136,2.338
			c-3.423,0-6.22-2.627-6.22-6.509c0-3.616,2.531-6.509,5.979-6.509c3.688,0,5.81,2.941,5.81,6.606c0,0.168,0,0.361-0.023,0.579
			h-9.885C306.997,43.056,308.926,44.575,311.12,44.575z M314.761,38.982c-0.193-2.266-1.495-4.243-3.979-4.243
			c-2.17,0-3.809,1.808-4.05,4.243H314.761z"/>
	</g>
	<g>
		<path fill="#1B3D6D" d="M0,26.163V0.898h12.6v25.008c0,6.493,3.278,9.579,8.293,9.579c5.079,0,8.358-2.957,8.358-9.258V0.898
			h12.601v24.943c0,14.465-8.294,20.894-21.087,20.894C8.035,46.735,0,40.242,0,26.163z"/>
		<path fill="#1B3D6D" d="M47.893,23.528V23.4C47.893,10.285,57.922,0,71.552,0c9.192,0,15.106,3.857,19.092,9.321l-9.385,7.265
			c-2.573-3.149-5.53-5.272-9.836-5.272c-6.301,0-10.735,5.401-10.735,11.958v0.129c0,6.75,4.435,12.02,10.735,12.02
			c4.692,0,7.457-2.186,10.158-5.462l9.385,6.685c-4.244,5.851-9.965,10.157-19.864,10.157
			C58.243,46.799,47.893,36.963,47.893,23.528z"/>
		<path fill="#1B3D6D" d="M97.971,0.898h12.472v45H97.971V0.898z"/>
	</g>
</g>
</svg>
