<?xml version="1.0" encoding="UTF-8"?>
<svg id="Layer_2" data-name="Layer 2" xmlns="http://www.w3.org/2000/svg" viewBox="0 0 84.97 27.29">
  <defs>
    <style>
      .cls-1 {
        fill-rule: evenodd;
      }

      .cls-1, .cls-2, .cls-3, .cls-4, .cls-5 {
        stroke-width: 0px;
      }

      .cls-1, .cls-4 {
        fill: #fff;
      }

      .cls-2 {
        fill: #214797;
      }

      .cls-3 {
        fill: #ddb228;
      }

      .cls-5 {
        fill: #020202;
      }
    </style>
  </defs>
  <g id="Layer_1-2" data-name="Layer 1">
    <g>
      <path class="cls-2" d="M22.05,19.07c-2.09,3.35-5.73,5.35-9.75,5.35s-7.65-2-9.75-5.35l-2.19,1.98c1.22,1.79,2.86,3.29,4.77,4.37,2.17,1.23,4.65,1.87,7.16,1.87s5-.65,7.17-1.87c1.86-1.05,3.51-2.7,4.72-4.42l-2.14-1.94Z"/>
      <rect class="cls-3" x="2.8" width="19" height=".71"/>
      <path class="cls-2" d="M21.81,7.43c-.04,2.07.46,10.29-9.5,16.04C2.34,17.72,2.84,9.5,2.8,7.43V.71h19v6.73Z"/>
      <path class="cls-3" d="M4.06,14.65c1.21,2.89,3.58,6.13,8.24,8.82,4.67-2.69,7.04-5.93,8.25-8.82l-8.25-7.45-8.24,7.45Z"/>
      <path class="cls-1" d="M10.76,2.54v3.58c-.98-.35-2.17-.07-2.8.38v-3.55c.55-.53,1.86-.76,2.8-.41"/>
      <path class="cls-1" d="M4.89,2.55v3.58c.98-.35,2.17-.07,2.8.38v-3.55c-.55-.53-1.86-.76-2.8-.41"/>
      <path class="cls-4" d="M11.6,5.39h0c-.14-.02-.25-.02-.32-.03v-1.17c.07,0,.18.01.31.03h.02c.28.01.32-.13.32-.13-.06-.15-.2-.21-.32-.22h0c-.14-.02-.25-.02-.32-.03v-.99h-.25v3.6c-1.35-.28-2.38-.14-3.2.45-.82-.59-1.85-.74-3.2-.45v-3.6h-.25v.99c-.05,0-.12,0-.21.02v-.04s-.02-.05-.06-.05l-.34.03s-.05.02-.05.05v.42s.02.05.06.05l.34-.03s.05-.02.05-.05v-.04c.09,0,.16-.01.21-.02v1.17c-.05,0-.12,0-.21.02v-.04s-.02-.05-.06-.05l-.34.04s-.05.02-.05.05v.42s.02.05.06.05l.34-.03s.05-.02.05-.05v-.04c.09,0,.16-.01.21-.02v1.05l.15-.03c1.39-.32,2.42-.18,3.22.43l.08.06.08-.06c.8-.61,1.83-.75,3.22-.43l.15.03v-1.05c.07,0,.18.01.31.03h.02c.28.01.32-.13.32-.13-.06-.15-.2-.21-.32-.22"/>
      <path class="cls-4" d="M4.57,23.76c-.13.17-.36.2-.59.01-.13-.1-.21-.2-.26-.29l.13-.16s.03-.01.04,0l.08.07s.01.01,0,.02l-.05.07c.05.06.11.12.15.15.13.09.26.12.34.01.09-.12.07-.18-.09-.41-.11-.17-.16-.33-.04-.47.13-.17.35-.18.58,0,.08.06.16.13.22.21l-.14.17s-.02.01-.04,0l-.08-.07s0-.01,0-.02l.05-.07s-.07-.06-.1-.09c-.13-.1-.26-.1-.33,0-.08.1-.05.17.09.38.14.21.14.36.03.49"/>
      <path class="cls-4" d="M5.9,24.74s.01.01,0,.02l-.11.18-.72-.41s-.01-.02,0-.03l.05-.07s.01,0,.02,0l.05.02.55-.91-.04-.03s0-.02,0-.03l.05-.07s.01,0,.02,0l.7.4-.11.18s-.02.01-.03,0l-.07-.05s0,0,0-.02l.02-.04-.37-.21-.21.34.42.24-.08.13-.42-.24-.23.38.4.23.03-.04s.02,0,.03,0l.07.05Z"/>
      <path class="cls-4" d="M7.41,25.43s.01,0,0,.02l-.08.19-.77-.32s-.01-.02,0-.03l.04-.08s0,0,.02,0l.05.02.43-.96-.05-.03s-.01-.02,0-.03l.04-.08s.01-.01.02,0l.74.31-.08.19s-.02.01-.03,0l-.08-.04s0,0,0-.02l.02-.05-.39-.17-.16.37.45.19-.06.14-.45-.19-.18.4.42.18.02-.05s.02-.01.03,0l.08.04Z"/>
      <path class="cls-4" d="M9.45,24.92s.02.01.01.03l-.03.08s0,.01-.02,0h-.05s-.54.3-.54.3l.24.7.05.02s.01.02,0,.03l-.03.08s-.01.01-.02,0l-.18-.05-.23-.69-.15.09-.1.34.05.02s.01.02,0,.03l-.03.08s0,.01-.02,0l-.28-.08s-.02-.02-.01-.03l.03-.08s0-.01.02,0h.05s.29-1,.29-1l-.05-.02s-.01-.02,0-.03l.03-.08s0-.01.02,0l.28.08s.02.02.01.03l-.03.08s0,.01-.02,0h-.05s-.13.44-.13.44l.56-.33-.05-.02s-.01-.02,0-.03l.03-.08s0-.01.02,0l.32.09Z"/>
      <path class="cls-4" d="M12.49,25.26s.02.01.02.03v.08s-.02.01-.03.01h-.05s-.35,1.11-.35,1.11c-.01.04-.04.06-.08.05h-.13s-.02-.02-.03-.04l-.18-1h0l-.28.93s-.04.08-.1.07h-.13s-.03-.02-.03-.04l-.22-1.16h-.05s-.02-.02-.01-.03v-.09s.02-.01.03-.01h.28s.02.03.02.04v.08s-.01.01-.02.01h-.05s.17.99.17.99h0l.3-1.02c.02-.06.05-.08.09-.07h.1s.02.02.03.04l.19,1.09h0l.28-.97h-.05s-.02-.02-.02-.03v-.08s.02-.01.02-.01h.28Z"/>
      <path class="cls-4" d="M13.57,26.36s.02,0,.02.03v.09s0,.01-.01.01l-.29.02s-.02,0-.02-.03v-.08s0-.01,0-.01h.05s-.09-1.06-.09-1.06h-.05s-.02,0-.02-.02v-.09s0-.01.01-.01l.29-.03s.02,0,.02.03v.09s0,.01-.01.01h-.05s.09,1.06.09,1.06h.05Z"/>
      <path class="cls-4" d="M15.2,25.88c.04.21-.09.39-.38.45-.16.03-.29.02-.39,0l-.04-.2s0-.03.03-.03h.1s.02-.01.02,0l.02.09c.08,0,.16,0,.22-.01.15-.03.26-.1.24-.24-.03-.15-.09-.17-.37-.21-.2-.03-.35-.1-.39-.29-.04-.21.09-.38.38-.43.11-.02.21-.03.31-.02l.04.22s0,.03-.03.03h-.1s-.02.01-.02,0l-.02-.09s-.09,0-.14.02c-.16.03-.25.12-.22.23.02.12.1.15.35.19.26.04.37.13.4.3"/>
      <path class="cls-4" d="M16.46,25.74c.35-.11.35-.37.26-.63-.1-.28-.23-.45-.61-.32l-.14.05.33.96.16-.05ZM16.07,24.65c.51-.17.72.03.85.4.16.47-.01.7-.45.85l-.35.11s-.02,0-.03-.02l-.02-.08s0-.01,0-.02l.05-.02-.34-1h-.05s-.02,0-.02,0l-.02-.08s0-.01,0-.02l.38-.12Z"/>
      <path class="cls-4" d="M17.75,24.7c.1.2.28.43.53.31.21-.1.21-.32.07-.6-.1-.2-.28-.42-.53-.3-.25.12-.17.4-.07.6M18.54,24.32c.21.4.12.68-.18.83-.3.15-.58.04-.79-.35-.15-.28-.2-.65.18-.83.32-.16.6,0,.78.36"/>
      <path class="cls-4" d="M20.61,23.61s.02,0,.03.01l.05.07s0,.01,0,.02l-.23.16s-.02,0-.03-.01l-.05-.07s0-.01,0-.02l.04-.03-.49-.65.18.81s0,.06-.01.07c-.02.01-.04.03-.05.04-.02,0-.03.01-.04,0l-.75-.44.46.67.04-.03s.02,0,.03.01l.05.07s0,.01,0,.02l-.23.16s-.02,0-.03-.01l-.05-.07s0-.01,0-.02l.04-.03-.59-.88-.04.03s-.02,0-.03-.01l-.04-.07s0-.01,0-.02l.17-.12s.02,0,.02,0l.89.52-.22-.97s0-.03.01-.03l.18-.12s.02,0,.03.01l.04.07s0,.01,0,.02l-.04.03.65.84.04-.03Z"/>
      <path class="cls-2" d="M.91,20.08l1.4-1.26.32-.29.18.29c.3.49.64.96,1.01,1.39l.47-.42c-.64-.76-1.17-1.61-1.55-2.53-.15-.35-.27-.7-.37-1.06l-.76,1.91-1.6.22s0,.01,0,.02l.9,1.75Z"/>
      <path class="cls-1" d="M19.73,2.54v3.58c-.98-.35-2.17-.07-2.8.38v-3.55c.55-.53,1.86-.76,2.8-.41"/>
      <path class="cls-1" d="M13.87,2.55v3.58c.98-.35,2.17-.07,2.8.38v-3.55c-.55-.53-1.85-.76-2.8-.41"/>
      <path class="cls-4" d="M20.58,5.39h0c-.14-.02-.25-.02-.32-.03v-1.17c.07,0,.18.01.31.03h.02c.28.01.32-.13.32-.13-.06-.15-.2-.21-.32-.22h0c-.14-.02-.25-.02-.32-.03v-.99h-.25v3.6c-1.35-.28-2.38-.14-3.2.45-.82-.59-1.85-.74-3.2-.45v-3.6h-.25v.99c-.05,0-.12,0-.21.02v-.04s-.02-.05-.06-.05l-.34.03s-.05.02-.05.05v.42s.02.05.06.05l.34-.03s.05-.02.05-.05v-.04c.09,0,.16-.01.21-.02v1.17c-.05,0-.12,0-.21.02v-.04s-.02-.05-.06-.05l-.34.04s-.05.02-.05.05v.42s.02.05.06.05l.34-.03s.05-.02.05-.05v-.04c.09,0,.16-.01.21-.02v1.05l.15-.03c1.39-.32,2.42-.18,3.22.43l.08.06.08-.06c.8-.61,1.83-.75,3.22-.43l.15.03v-1.05c.07,0,.18.01.31.03h.02c.28.01.32-.13.32-.13-.06-.15-.2-.21-.32-.22"/>
      <path class="cls-2" d="M23.69,20.08l-1.4-1.26-.32-.29-.18.29c-.3.49-.64.96-1.01,1.39l-.47-.42c.64-.76,1.17-1.61,1.55-2.53.14-.35.27-.7.37-1.06l.76,1.91,1.6.22s0,.01,0,.02l-.9,1.75Z"/>
      <path class="cls-4" d="M12.79,17.51c.56.27,1.04.41,1.33.39.01,0,.03,0,.04,0,.1,0,.23-.03.32-.09.09-.05.15-.11.2-.17.06-.08.08-.15.09-.24-.04.01-.07.03-.11.03,0,0-.03,0-.04,0-.33.05-.73,0-1.3-.14-.09.1-.28.16-.48.11-.02.04-.03.07-.05.11"/>
      <path class="cls-4" d="M13.59,14.5s-.03.07-.05.1c-.08.14-.2.25-.31.3,0,.04,0,.07,0,.11.24-.1.49-.22.73-.35.91-.47,1.54-1,1.74-1.38,0,0,.02-.03.02-.04.05-.1.1-.24.1-.37,0-.22-.1-.41-.24-.51-.19.42-.53.9-1,1.36-.32.31-.66.57-1,.77"/>
      <path class="cls-4" d="M13.46,16.74c-.08.09-.22.16-.38.18-.03,0-.06,0-.09,0,0,.03-.02.06-.03.09.81.22,1.49.27,1.84.16,0,0,.03,0,.04-.01.1-.03.22-.09.31-.17.08-.07.12-.14.15-.23.04-.1.03-.18.03-.18-.04.02-.21.08-.21.08-.32.11-.86.14-1.66.08"/>
      <path class="cls-4" d="M15.76,14.67c-.3.32-1.07.68-2.1.92-.07.1-.19.2-.34.25-.05.02-.09.03-.13.03,0,.03,0,.07-.01.1.08,0,.16,0,.24,0,1.03-.06,1.83-.27,2.17-.53,0,0,.03-.02.04-.03.09-.07.2-.18.25-.29.05-.11.07-.19.07-.29,0-.12-.02-.2-.08-.29-.03.04-.06.07-.08.1,0,0-.03.03-.03.03"/>
      <path class="cls-4" d="M13.98,18.16c-.32,0-.79-.15-1.33-.41-.03.04-.05.08-.08.12.42.21.8.36,1.1.43-.01.02-.03.03-.05.05-.07.06-.13.1-.23.13-.1.03-.24.03-.34.02,0,0-.03,0-.04,0-.18-.03-.42-.13-.7-.31-.03.03-.07.06-.1.09.29.19.54.31.75.36-.05.04-.11.06-.18.09-.09.02-.2.02-.28,0,0,0-.02,0-.03,0-.14-.03-.32-.12-.52-.26-.05.02-.09.04-.14.06-.09.03-.21.05-.3.05-.27,0-.53-.12-.76-.34-.01,0-.08.06-.07.07.23.24.52.38.82.38.09,0,.33-.03.41-.08.24.16.44.24.6.27,0,0,.03,0,.04,0,.09.01.21.02.3-.02.09-.03.15-.06.21-.12.02-.02.05-.04.07-.07.1.01.22,0,.33-.02.11-.03.18-.08.25-.14.06-.05.12-.1.14-.16.16,0,.28-.02.28-.02.06,0,.13-.03.19-.08.04-.04.07-.07.09-.11-.13.04-.27.05-.38.05-.01,0-.05,0-.06,0"/>
      <path class="cls-4" d="M14.5,14.62c-.26.15-.52.29-.78.4-.03.05-.07.1-.11.15-.12.13-.26.21-.39.24,0,.04,0,.07,0,.11.15-.03.3-.07.45-.11.99-.26,1.73-.64,2.01-.96,0,0,.02-.03.03-.03.08-.09.16-.21.19-.34.05-.21.01-.38-.1-.51-.28.37-.73.73-1.29,1.07"/>
      <path class="cls-4" d="M15.68,15.6s-.03.03-.04.03c-.33.25-1.06.45-2,.52-.06.06-.14.13-.24.17-.1.04-.2.07-.29.08,0,.03-.02.06-.02.09,0,0,.01,0,.02,0,1.02.12,1.85.05,2.23-.15.01,0,.03-.01.04-.02.1-.05.23-.14.3-.25.07-.09.11-.18.12-.28.02-.11.01-.19-.02-.29-.03.03-.07.06-.1.08"/>
      <path class="cls-4" d="M13.61,13.71c0,.12-.04.26-.11.38-.08.14-.2.25-.31.3,0,.04,0,.07.01.11.4-.22.83-.52,1.21-.89.46-.44.8-.91.98-1.33.05-.11.08-.25.07-.4-.02-.3-.18-.55-.39-.64,0,.06,0,.12,0,.18-.04.42-.44,1.14-1.11,1.9-.11.12-.22.25-.34.37"/>
      <path class="cls-4" d="M13.77,13.23c.66-.77,1.05-1.5,1.09-1.92.03-.26-.04-.51-.19-.59-.01.38-.53,1.29-1.36,2.31.08.14.04.38-.08.59-.04.07-.07.09-.14.17,0,.05.02.09.03.14.22-.21.44-.45.66-.7"/>
      <path class="cls-5" d="M8.57,13.67s-.04-.01-.06-.02c0,.09,0,.19,0,.29,0,.25-.04.48-.09.68-.01.05,0,.1.05.12.02,0,.03,0,.05,0h0c.08-.18.19-.38.31-.58.02-.04.05-.07.07-.11-.04-.16-.17-.3-.34-.37"/>
      <path class="cls-5" d="M15.62,15.42s-.03.02-.04.03c-.34.26-1.15.47-2.17.53-.08,0-.16,0-.24,0,0-.03,0-.06.01-.1.04,0,.09-.02.13-.03.15-.06.28-.15.34-.25,1.02-.24,1.8-.6,2.1-.92,0,0,.03-.03.03-.03.03-.03.06-.06.08-.1.05.09.08.17.08.29,0,.1-.02.19-.07.29-.05.12-.16.23-.25.29M15.72,13.25s-.02.03-.02.04c-.2.38-.84.9-1.74,1.38-.24.13-.49.25-.73.35,0-.04,0-.07,0-.11.12-.06.23-.16.31-.3.02-.03.04-.07.05-.1.34-.2.68-.47,1-.77.47-.45.81-.93,1-1.36.14.1.24.29.24.51,0,.13-.05.27-.1.37M15.9,14.07c-.03.12-.11.25-.19.34,0,0-.02.03-.03.03-.28.32-1.02.7-2.01.96-.15.04-.3.08-.45.11,0-.04,0-.07,0-.11.13-.03.27-.11.39-.24.04-.05.08-.1.11-.15.26-.11.52-.24.78-.4.56-.34,1.02-.69,1.29-1.07.11.13.15.3.1.51M15.06,11.25c.21.08.37.33.39.64.01.15-.02.29-.07.4-.18.42-.52.88-.98,1.33-.39.37-.8.67-1.21.89,0-.04,0-.07-.01-.11.12-.06.23-.16.31-.3.08-.13.12-.27.12-.38.11-.12.22-.24.33-.37.67-.76,1.07-1.48,1.11-1.9,0-.06.01-.12,0-.18M14.86,11.32c-.04.42-.43,1.15-1.09,1.92-.21.25-.43.49-.66.7-.01-.05-.02-.1-.03-.14.07-.07.1-.1.14-.17.12-.21.16-.45.08-.59.83-1.02,1.35-1.94,1.36-2.31.15.09.22.33.19.59M14.16,17.9s-.03,0-.04,0c-.29.02-.77-.12-1.33-.39.02-.04.03-.07.05-.11.2.05.39,0,.48-.11.56.15.97.19,1.3.14,0,0,.03,0,.04,0,.03,0,.07-.02.11-.03,0,.09-.03.16-.09.24-.05.07-.11.13-.19.18-.1.06-.22.08-.32.09M14.15,18.31s-.12.03-.28.02c-.03.06-.08.11-.14.16-.07.06-.15.11-.25.14-.1.03-.23.03-.33.02-.02.02-.04.04-.07.07-.06.05-.12.09-.21.12-.09.03-.21.03-.3.01,0,0-.03,0-.03,0-.16-.03-.36-.1-.6-.27-.08.05-.32.09-.41.09-.29,0-.59-.14-.82-.38-.01,0,.06-.08.07-.07.23.22.49.34.76.34.09,0,.21-.02.3-.05.04-.02.09-.03.14-.06.21.14.39.23.53.26,0,0,.02,0,.03,0,.08.02.19.02.28,0,.07-.02.13-.04.18-.09-.2-.05-.46-.17-.75-.36.03-.03.07-.06.1-.09.28.17.52.28.7.31,0,0,.03,0,.04,0,.1.02.23.02.34-.02.1-.03.17-.07.23-.13.02-.02.03-.03.05-.05-.31-.07-.68-.22-1.1-.43.03-.04.05-.08.08-.12.54.26,1.01.41,1.33.41.01,0,.05,0,.06,0,.11,0,.25-.01.38-.05-.02.04-.05.08-.09.11-.06.05-.13.07-.19.08M15.3,16.76c-.03.09-.08.15-.15.23-.08.08-.21.14-.31.17,0,0-.03,0-.04.01-.35.11-1.03.06-1.84-.16.01-.03.02-.06.03-.1.03,0,.06,0,.09,0,.16-.01.3-.09.38-.18.8.06,1.34.03,1.66-.08,0,0,.17-.05.21-.08,0,0,.01.08-.03.18M15.8,15.8c-.02.1-.05.18-.12.28-.08.11-.2.19-.3.25,0,0-.03.02-.04.02-.38.2-1.21.27-2.23.15,0,0-.01,0-.02,0,0-.03.01-.06.02-.09.09,0,.2-.03.29-.08.09-.04.17-.11.23-.17h0c.95-.08,1.68-.28,2-.53,0,0,.03-.02.04-.03.03-.03.07-.05.1-.08.04.09.04.17.02.29M16.22,14.81c-.01-.16-.06-.3-.14-.42.1-.14.15-.31.14-.51,0-.21-.08-.41-.21-.55.08-.14.12-.3.11-.48,0-.32-.17-.6-.39-.74,0-.06,0-.12,0-.18-.01-.48-.23-.78-.57-.91-.07-.35-.31-.66-.52-.82-.26,1.07-1.07,2.1-1.36,2.5-.47.65-.58,1.28-.84,2.02-.31.88-.53,1.82-1.36,2.38,0-.09,0-.18.02-.27.14-1.2,1.13-3.17.77-4.31-.02-.07-.05-.14-.08-.2-.35-.78-1.16-.91-1.99-.54-.51.23-1.05.42-1.3.97-.1.22-.13.45-.11.64,0,.04.03.08.07.09.05.02.11-.01.14-.07.02-.04.04-.09.04-.15h0s0-.03.01-.05c.03-.06.09-.09.15-.07.06.02.08.09.06.15,0,.01-.01.02-.02.03-.01.02-.03.04-.04.07-.03.06-.05.11-.06.16,0,.06.03.13.09.16,0,0,.01,0,.02,0,.24.09.51-.03.68-.27.06-.09.12-.19.17-.3.08-.17.08-.35.21-.5.23-.26.89-.43,1.17-.09.56.66-.06,1.52-.45,2.08-.49.71-1.16,1.52-1.5,2.32-.89,2.09.63,4.13,3.08,4.13,1.56,0,2.53-.66,3.08-1.46-1.06-.08-1.64-.75-1.64-.75,0,0,.21-.02.35-.25,0,0,.1-.01.19-.02.22-.03.41-.14.49-.37.07-.2.07-.32.07-.32,0,0,.14-.06.23-.25.05-.11.06-.16.06-.27.25-.08.44-.29.54-.55.05-.14.07-.21.05-.34.28-.14.49-.52.48-.83,0-.11-.03-.2-.07-.29.12-.14.19-.34.17-.56"/>
      <path class="cls-2" d="M31.05.71v.66s-.03.06-.09.06l-.28-.02s-.04-.01-.04-.04v-.16s-.01,0-.01,0h-.84v3.28h.17s.06.05.05.1l-.02.27s-.02.04-.04.04h-.94s-.07-.03-.06-.09l.02-.27s0-.04.04-.04h.16V1.2h-.78v.17s-.05.06-.1.05l-.28-.02s-.04-.02-.04-.04v-.65h3.08Z"/>
      <path class="cls-2" d="M35.16,4.49s.05.04.05.09l-.02.27s-.02.04-.04.04h-.94s-.07-.03-.06-.09l.02-.27s.01-.04.05-.04h.16v-1.46h-1.92v1.45h.17s.05.05.05.1l-.02.27s-.02.04-.04.04h-.94s-.07-.03-.06-.09l.02-.27s.01-.04.04-.04h.16V1.12h-.17s-.06-.05-.05-.1l.02-.27s.02-.04.04-.04h.94s.07.03.06.09l-.02.27s-.01.04-.04.04h-.16v1.42h1.92v-1.41h-.17s-.05-.05-.05-.1l.02-.27s.02-.04.05-.04h.94s.07.03.06.09l-.02.27s-.01.04-.04.04h-.16v3.37h.17Z"/>
      <path class="cls-2" d="M38.67,4.19s.04.02.04.04v.66h-2.67s-.07-.03-.06-.09l.02-.27s.01-.04.04-.04h.16V1.12h-.17s-.05-.05-.05-.1l.02-.27s.02-.04.04-.04h2.58v.66s-.03.06-.09.06l-.27-.02s-.04-.01-.05-.04v-.16h-1.38v1.28h1.55v.5h-1.55v1.41h1.47v-.17s.05-.05.1-.05l.28.02Z"/>
      <path class="cls-2" d="M45.03.71s.07.03.06.09l-.02.27s-.01.04-.04.04h-.16s-.02.01-.02.01v2.23c0,1.09-.44,1.61-1.55,1.61s-1.53-.35-1.53-1.61V1.12h-.17s-.06-.05-.05-.1l.02-.27s.02-.04.04-.04h.94s.07.03.06.09l-.02.27s-.01.04-.05.04h-.16v2.35c0,.67.21,1.03.9,1.03.77,0,.95-.46.95-1.03V1.12h-.17s-.06-.05-.05-.1l.02-.27s.02-.04.04-.04h.94Z"/>
      <path class="cls-2" d="M49.65.71s.07.03.06.09l-.02.27s-.01.04-.04.04h-.16s-.05.01-.05.01v3.77h-.41s-.05-.01-.06-.03l-2.26-3.08v2.71h.22s.05.05.05.1l-.02.27s-.02.04-.04.04h-.94s-.07-.03-.06-.09l.02-.27s.01-.04.04-.04h.16V1.12h-.17s-.05-.05-.05-.1l.02-.27s.02-.04.04-.04h.61s.05.02.07.04l2.21,3.02V1.12h-.17s-.06-.05-.05-.1l.02-.27s.02-.04.04-.04h.94Z"/>
      <path class="cls-2" d="M51.61,4.49s.06.04.05.09l-.02.27s-.02.04-.04.04h-.94s-.07-.03-.06-.09l.02-.27s.01-.04.05-.04h.16V1.12h-.17s-.05-.05-.05-.1l.02-.27s.02-.04.05-.04h.94s.07.03.06.09l-.02.27s-.01.04-.04.04h-.16v3.37h.17Z"/>
      <path class="cls-2" d="M56.09.71s.07.03.06.09l-.02.27s-.01.04-.04.04h-.16s-1.37,3.65-1.37,3.65c-.03.08-.09.13-.18.13l-.46-.02s-.03,0-.04-.03l-1.43-3.72h-.17s-.05-.05-.05-.1l.02-.27s.02-.04.04-.04h.95s.07.03.06.09l-.02.27s-.01.04-.05.04h-.16s1.11,3.05,1.11,3.05h.02l1.1-3.04h-.17s-.06-.05-.05-.1l.02-.27s.02-.04.04-.04h.93Z"/>
      <path class="cls-2" d="M59.42,4.19s.04.02.04.04v.66h-2.67s-.07-.03-.06-.09l.02-.27s.01-.04.04-.04h.16V1.12h-.17s-.05-.05-.05-.1l.02-.27s.02-.04.04-.04h2.58v.66s-.03.06-.09.06l-.28-.02s-.04-.01-.04-.04v-.16h-1.38v1.28h1.55v.5h-1.55v1.41h1.47v-.17s.05-.05.1-.05l.28.02Z"/>
      <path class="cls-2" d="M61.62,2.79c.59,0,.94-.25.94-.84s-.33-.78-.89-.78h-.53v1.61h.48ZM63.32,4.49s.06.04.05.09l-.02.27s-.02.04-.04.04h-.63l-.94-1.62h-.61v1.21h.17s.05.05.05.1l-.02.27s-.02.04-.04.04h-.94s-.07-.03-.06-.09l.02-.27s.01-.04.04-.04h.16V1.12h-.17s-.05-.05-.05-.1l.02-.27s.02-.04.04-.04h1.25c1.08,0,1.58.4,1.58,1.25,0,.54-.29,1.01-.82,1.2l.78,1.32h.17Z"/>
      <path class="cls-2" d="M66.74,3.74c0,.68-.51,1.17-1.48,1.17-.52,0-.93-.11-1.23-.23v-.65s.04-.08.1-.07l.33.02s.05.01.05.05v.29c.27.06.53.09.71.09.5,0,.89-.17.89-.61,0-.48-.19-.58-1.04-.87-.62-.23-1.04-.53-1.04-1.13,0-.67.52-1.12,1.46-1.12.34,0,.67.03.98.11v.71s-.04.08-.11.07l-.33-.02s-.05-.01-.06-.05v-.29c-.16-.02-.31-.03-.45-.03-.51,0-.85.23-.85.6s.23.53.99.79c.79.27,1.06.64,1.06,1.17"/>
      <path class="cls-2" d="M68.53,4.49s.05.04.05.09l-.02.27s-.02.04-.04.04h-.94s-.07-.03-.06-.09l.02-.27s.01-.04.04-.04h.16V1.12h-.17s-.05-.05-.05-.1l.02-.27s.02-.04.04-.04h.94s.07.03.06.09l-.02.27s-.01.04-.04.04h-.16v3.37h.17Z"/>
      <path class="cls-2" d="M72.32.71v.66s-.03.06-.09.06l-.28-.02s-.04-.01-.04-.04v-.16s-.01,0-.01,0h-.84v3.28h.17s.06.05.05.1l-.02.27s-.02.04-.04.04h-.94s-.07-.03-.06-.09l.02-.27s.01-.04.04-.04h.16V1.2h-.78v.17s-.05.06-.1.05l-.27-.02s-.05-.02-.05-.04v-.65h3.08Z"/>
      <path class="cls-2" d="M76.04.71s.07.03.06.09l-.02.27s-.01.04-.04.04h-.16s-1.2,2.31-1.2,2.31v1.06h.17s.06.05.05.1l-.02.27s-.02.04-.04.04h-.94s-.07-.03-.06-.09l.02-.27s.01-.04.04-.04h.16v-1.08l-1.18-2.29h-.17s-.05-.05-.05-.1l.02-.27s.02-.04.04-.04h.94s.07.03.06.09l-.02.27s0,.04-.04.04h-.16s.86,1.75.86,1.75h.02l.89-1.74h-.17s-.05-.05-.05-.1l.02-.27s.02-.04.04-.04h.93Z"/>
      <path class="cls-2" d="M78.82,2.79c0,.71.16,1.62,1.07,1.62.75,0,1.08-.63,1.08-1.62,0-.72-.18-1.61-1.07-1.61s-1.08.91-1.08,1.61M81.62,2.8c0,1.43-.65,2.12-1.73,2.12s-1.73-.71-1.73-2.12c0-1.01.39-2.12,1.74-2.12,1.15,0,1.72.86,1.72,2.12"/>
      <path class="cls-2" d="M84.92.71v.66s-.03.06-.09.06l-.27-.02s-.04-.01-.05-.04v-.16h-1.39v1.28h1.49v.5h-1.49v1.5h.17s.06.05.05.1l-.02.27s-.02.04-.04.04h-.94s-.07-.03-.06-.09l.02-.27s.01-.04.04-.04h.16V1.12h-.17s-.05-.05-.05-.1l.02-.27s.02-.04.04-.04h2.58Z"/>
      <path class="cls-2" d="M39.67,6.84c.1,0,.15.07.13.19l-.04.6s-.02.08-.1.09l-.34.02-2.06,7.92c-.07.26-.29.42-.56.42l-.95-.03c-.13,0-.18-.08-.22-.22l-1.66-6.97h-.01l-1.63,6.66c-.06.24-.22.57-.65.56l-.91-.03c-.11,0-.18-.06-.22-.22l-2-8.09-.37-.02c-.09,0-.12-.08-.11-.19l.04-.59c0-.06.04-.1.1-.1h2.01c.1,0,.15.07.13.19l-.04.6s-.02.08-.1.09l-.34.02,1.56,6.95h.01l1.74-7.3c.1-.42.3-.56.6-.55l.69.04c.12.01.17.07.21.23l1.77,7.59h.01l1.63-6.95-.37-.02c-.09,0-.12-.08-.11-.19l.04-.59c0-.06.04-.1.1-.1h2Z"/>
      <path class="cls-2" d="M46.42,14.53c.06,0,.1.04.1.1v1.45h-5.91c-.1,0-.15-.07-.13-.19l.04-.6s.02-.08.1-.1l.35-.02v-7.43l-.38-.02c-.09,0-.12-.08-.11-.19l.04-.6c0-.06.04-.1.1-.1h5.71v1.46c0,.09-.07.14-.2.13l-.61-.04s-.09-.02-.1-.09l-.02-.35h-3.04v2.83h3.44v1.1h-3.44v3.11h3.24l.02-.37c0-.08.09-.12.2-.11l.61.04Z"/>
      <path class="cls-2" d="M53.42,13.54c0,1.5-1.13,2.6-3.27,2.6-1.14,0-2.06-.24-2.72-.51v-1.44c0-.11.09-.17.23-.15l.73.05s.11.02.12.11l.02.64c.57.13,1.14.2,1.54.2,1.11,0,1.97-.37,1.97-1.36,0-1.06-.41-1.28-2.29-1.93-1.37-.5-2.3-1.18-2.3-2.5,0-1.49,1.16-2.48,3.22-2.48.75,0,1.47.07,2.16.24v1.56c0,.11-.09.17-.23.15l-.73-.05s-.11-.02-.12-.11l-.02-.64c-.33-.04-.66-.06-.96-.06-1.13,0-1.88.51-1.88,1.33s.51,1.17,2.18,1.75c1.74.6,2.35,1.41,2.35,2.6"/>
      <path class="cls-2" d="M60.71,6.84v1.45c0,.1-.07.14-.19.13l-.61-.03s-.09-.02-.1-.1l-.02-.35h0s-1.85-.01-1.85-.01v7.25l.38.02c.09,0,.12.08.11.19l-.04.6c0,.06-.04.09-.1.09h-2.09c-.1,0-.15-.07-.13-.19l.04-.6s.02-.08.1-.09l.35-.02v-7.25h-1.72l-.02.37c0,.08-.09.12-.2.11l-.61-.04c-.06,0-.1-.04-.1-.09v-1.44h6.8Z"/>
      <path class="cls-2" d="M67.54,14.53c.06,0,.1.04.1.1v1.45h-5.91c-.1,0-.15-.07-.13-.19l.04-.6s.02-.08.1-.1l.35-.02v-7.43l-.38-.02c-.09,0-.12-.08-.11-.19l.04-.6c0-.06.04-.1.1-.1h5.71v1.46c0,.09-.07.14-.19.13l-.61-.04s-.09-.02-.1-.09l-.02-.35h-3.04v2.83h3.44v1.1h-3.44v3.11h3.24l.03-.37c0-.08.08-.12.19-.11l.61.04Z"/>
      <path class="cls-2" d="M71.71,11.45c1.32,0,2.07-.56,2.07-1.85s-.72-1.72-1.96-1.72h-1.17v3.56h1.06ZM75.48,15.2c.08,0,.12.08.11.19l-.04.6c0,.06-.04.09-.1.09h-1.39l-2.07-3.57h-1.34v2.67l.38.02c.09,0,.12.08.11.19l-.04.6c0,.06-.04.09-.1.09h-2.09c-.1,0-.15-.07-.13-.19l.04-.6s.02-.08.1-.09l.35-.02v-7.44l-.38-.02c-.09,0-.12-.08-.11-.19l.04-.59c0-.06.04-.1.1-.1h2.76c2.38,0,3.5.88,3.5,2.76,0,1.2-.65,2.23-1.8,2.66l1.73,2.92.38.02Z"/>
      <path class="cls-2" d="M84.83,6.84c.1,0,.15.07.13.19l-.03.6s-.02.08-.1.09l-.35.02h-.11v8.34h-.92c-.06,0-.1-.02-.13-.07l-4.98-6.82v5.98h.11l.38.02c.09,0,.12.08.11.19l-.04.6c0,.06-.04.09-.1.09h-2.09c-.1,0-.15-.07-.13-.19l.04-.6s.02-.08.1-.09l.35-.02v-7.44l-.38-.02c-.09,0-.12-.08-.11-.19l.04-.59c0-.06.04-.1.1-.1h1.35c.07,0,.11.04.15.08l4.89,6.67v-5.85l-.38-.02c-.08,0-.12-.08-.11-.19l.03-.59c0-.06.04-.1.1-.1h2.08Z"/>
      <path class="cls-2" d="M32.92,23.04l-1.36-3.76h0l-1.28,3.76h2.65ZM35.2,25.13c.07,0,.11.07.1.16l-.03.51c0,.05-.03.08-.07.08h-1.83c-.08,0-.12-.06-.11-.16l.03-.51s.02-.07.08-.08l.29-.02-.41-1.13h-3.31l-.38,1.13.32.02c.07,0,.1.07.09.16l-.03.51c0,.05-.03.08-.08.08h-1.76c-.08,0-.13-.06-.12-.16l.03-.51s.02-.07.08-.08l.29-.02,2.34-6.36-.31-.02c-.07,0-.1-.07-.09-.16l.03-.51c0-.05.03-.08.08-.08h1.66l2.79,7.14.31.02Z"/>
      <path class="cls-2" d="M41.81,17.97c.08,0,.13.06.12.16l-.03.51s-.02.07-.08.08l-.3.02h-.03v4.22c0,2.06-.82,3.04-2.93,3.04s-2.89-.66-2.89-3.04v-4.22l-.32-.02c-.07,0-.1-.07-.09-.16l.03-.51c0-.05.03-.08.08-.08h1.78c.08,0,.13.06.11.16l-.03.51s-.02.07-.08.08l-.3.02v4.42c0,1.27.39,1.95,1.7,1.95,1.46,0,1.79-.88,1.79-1.95v-4.42l-.32-.02c-.07,0-.11-.07-.09-.16l.03-.51c0-.05.03-.08.08-.08h1.78Z"/>
      <path class="cls-2" d="M47.73,23.71c0,1.28-.97,2.22-2.79,2.22-.98,0-1.76-.2-2.33-.44v-1.23c0-.09.07-.14.2-.13l.63.04s.09.02.11.09l.02.55c.49.11.98.17,1.31.17.95,0,1.69-.32,1.69-1.16,0-.91-.36-1.09-1.96-1.65-1.17-.43-1.97-1.01-1.97-2.14,0-1.27.99-2.12,2.75-2.12.65,0,1.26.06,1.85.2v1.34c0,.09-.07.14-.2.13l-.63-.04s-.09-.02-.11-.09l-.02-.55c-.28-.03-.56-.05-.82-.05-.97,0-1.61.44-1.61,1.14s.44,1,1.87,1.5c1.49.51,2.01,1.2,2.01,2.22"/>
      <path class="cls-2" d="M54.11,17.97v1.24c0,.08-.06.12-.17.11l-.52-.03s-.07-.02-.08-.08l-.02-.29h0s-1.59-.01-1.59-.01v6.2l.32.02c.07,0,.1.07.09.16l-.03.51c0,.05-.03.08-.08.08h-1.78c-.08,0-.12-.06-.11-.16l.03-.51s.02-.07.08-.08l.3-.02v-6.2h-1.47l-.02.32c0,.07-.07.1-.17.09l-.52-.03c-.05,0-.08-.03-.08-.08v-1.23h5.82Z"/>
      <path class="cls-2" d="M57.4,21.92c1.13,0,1.77-.48,1.77-1.58s-.62-1.47-1.68-1.47h-1v3.05h.91ZM60.62,25.13c.07,0,.1.07.09.16l-.03.51c0,.05-.03.08-.08.08h-1.19l-1.77-3.06h-1.15v2.28l.32.02c.07,0,.1.07.09.16l-.03.51c0,.05-.03.08-.08.08h-1.78c-.08,0-.12-.06-.11-.16l.03-.51s.02-.07.08-.08l.3-.02v-6.36l-.32-.02c-.07,0-.1-.07-.09-.16l.03-.51c0-.05.03-.08.08-.08h2.36c2.03,0,2.99.76,2.99,2.36,0,1.03-.55,1.91-1.54,2.27l1.48,2.5.32.02Z"/>
      <path class="cls-2" d="M66.13,23.04l-1.36-3.76h-.01l-1.28,3.76h2.65ZM68.41,25.13c.07,0,.1.07.09.16l-.03.51c0,.05-.03.08-.07.08h-1.83c-.08,0-.13-.06-.11-.16l.03-.51s.02-.07.08-.08l.29-.02-.41-1.13h-3.31l-.39,1.13.32.02c.07,0,.1.07.09.16l-.03.51c0,.05-.03.08-.08.08h-1.76c-.08,0-.13-.06-.11-.16l.03-.51s.02-.07.08-.08l.29-.02,2.34-6.36-.31-.02c-.07,0-.1-.07-.09-.16l.03-.51c0-.05.03-.08.08-.08h1.66l2.8,7.14.31.02Z"/>
      <path class="cls-2" d="M74.26,24.56c.05,0,.08.03.08.08v1.24h-5.06c-.08,0-.13-.06-.12-.16l.03-.51s.02-.07.08-.08l.3-.02v-6.36l-.32-.02c-.07,0-.1-.07-.09-.16l.03-.51c0-.05.03-.08.08-.08h1.78c.08,0,.12.06.11.16l-.03.51s-.02.07-.08.08l-.3.02v6.19h2.79l.02-.32c0-.07.07-.1.17-.09l.52.03Z"/>
      <path class="cls-2" d="M76.88,25.13c.07,0,.1.07.09.16l-.03.51c0,.05-.03.08-.08.08h-1.78c-.08,0-.12-.06-.11-.16l.03-.51s.02-.07.08-.08l.3-.02v-6.36l-.32-.02c-.07,0-.1-.07-.09-.16l.03-.51c0-.05.03-.08.08-.08h1.78c.08,0,.13.06.11.16l-.03.51s-.02.07-.08.08l-.3.02v6.36l.32.02Z"/>
      <path class="cls-2" d="M82.59,23.04l-1.36-3.76h-.01l-1.28,3.76h2.65ZM84.87,25.13c.07,0,.1.07.09.16l-.03.51c0,.05-.03.08-.07.08h-1.83c-.08,0-.13-.06-.11-.16l.03-.51s.02-.07.08-.08l.29-.02-.41-1.13h-3.31l-.39,1.13.32.02c.08,0,.11.07.1.16l-.03.51c0,.05-.03.08-.08.08h-1.76c-.08,0-.13-.06-.12-.16l.03-.51s.02-.07.08-.08l.29-.02,2.34-6.36-.31-.02c-.07,0-.1-.07-.09-.16l.03-.51c0-.05.03-.08.08-.08h1.66l2.79,7.14.31.02Z"/>
      <path class="cls-2" d="M14.87,4.22h-.54v-.84h.52s0,.04,0,.07c0,.03,0,.05,0,.08h-.34v.18h.29s0,.04,0,.07c0,.03,0,.05,0,.08h-.29v.2h.35s0,.04,0,.07c0,.03,0,.05,0,.08"/>
      <path class="cls-2" d="M15.27,3.52s-.06,0-.08,0v.25h.06c.11,0,.15-.04.15-.13s-.04-.12-.13-.12M15.64,4.22s-.07,0-.11,0c-.04,0-.07,0-.09,0l-.17-.3h-.08v.3s-.06,0-.09,0c-.03,0-.06,0-.09,0v-.84c.06,0,.18,0,.25,0,.21,0,.32.07.32.27,0,.1-.06.2-.15.24l.21.33Z"/>
      <path class="cls-2" d="M16.26,4.22h-.54v-.84h.52s0,.04,0,.07c0,.03,0,.05,0,.08h-.34v.18h.29s0,.04,0,.07c0,.03,0,.05,0,.08h-.29v.2h.36s0,.04,0,.07c0,.03,0,.05,0,.08"/>
      <path class="cls-2" d="M14.6,4.68s-.06,0-.08,0v.25h.08c.1,0,.15-.03.15-.13,0-.09-.04-.12-.14-.12M14.6,5.07h-.09v.3s-.05,0-.09,0c-.04,0-.07,0-.09,0v-.83c.07,0,.18,0,.26,0,.19,0,.33.07.33.26s-.12.28-.32.28"/>
      <path class="cls-2" d="M15.57,5.37h-.53v-.84h.52s0,.04,0,.07c0,.03,0,.05,0,.08h-.34v.18h.29s0,.04,0,.07c0,.03,0,.05,0,.08h-.29v.2h.35s0,.04,0,.07c0,.03,0,.05,0,.08"/>
      <path class="cls-2" d="M15.96,4.68s-.06,0-.08,0v.25h.06c.1,0,.15-.04.15-.13s-.04-.12-.13-.12M16.33,5.37s-.07,0-.11,0c-.04,0-.07,0-.09,0l-.17-.3h-.08v.3s-.06,0-.09,0c-.03,0-.06,0-.09,0v-.84c.06,0,.18,0,.25,0,.22,0,.32.07.32.27,0,.1-.06.2-.15.24l.21.33Z"/>
      <path class="cls-2" d="M18.07,3.91l-.07-.24s-.02-.06-.03-.1h0s-.02.07-.02.1l-.07.24h.2ZM18.37,4.22s-.05,0-.1,0c-.03,0-.07,0-.09,0l-.06-.17h-.3l-.06.17s-.06,0-.09,0c-.03,0-.07,0-.09,0l.3-.84s.06,0,.09,0c.03,0,.07,0,.09,0l.32.84Z"/>
      <path class="cls-2" d="M18.71,3.52s-.06,0-.08,0v.25h.06c.1,0,.15-.04.15-.13s-.05-.12-.13-.12M19.08,4.22s-.07,0-.11,0c-.04,0-.07,0-.1,0l-.17-.3h-.08v.3s-.06,0-.09,0c-.03,0-.06,0-.09,0v-.84c.06,0,.18,0,.25,0,.21,0,.32.07.32.27,0,.1-.06.2-.15.24l.21.33Z"/>
      <path class="cls-2" d="M17.99,4.69h-.23v.68s-.06,0-.09,0-.07,0-.09,0v-.68h-.22s0-.06,0-.08,0-.06,0-.08h.63s0,.06,0,.08,0,.06,0,.08"/>
      <path class="cls-2" d="M18.62,5.37h-.53v-.84h.52s0,.04,0,.07c0,.03,0,.05,0,.08h-.34v.18h.29s0,.04,0,.07c0,.03,0,.05,0,.08h-.29v.2h.35s0,.04,0,.07c0,.03,0,.05,0,.08"/>
      <path class="cls-2" d="M19.01,5.39c-.09,0-.19-.02-.27-.05,0-.02,0-.04,0-.06,0-.03,0-.06.01-.09.07.03.17.05.25.05.09,0,.14-.04.14-.1,0-.06-.04-.09-.16-.12-.14-.04-.24-.1-.24-.25,0-.15.14-.24.31-.24.08,0,.15.01.2.03,0,.01,0,.04,0,.07,0,.02,0,.06,0,.08-.06-.02-.14-.03-.19-.03-.1,0-.15.03-.15.08,0,.06.05.08.16.12.14.04.24.1.24.25,0,.16-.13.26-.3.26"/>
      <path class="cls-2" d="M5.73,3.86c.02.05.04.11.05.16h0s.03-.11.04-.16l.09-.26c.02-.07.04-.13.04-.2.03,0,.06,0,.09,0,.02,0,.06,0,.09,0,0,.08-.02.16-.05.25l-.23.59s-.05,0-.08,0c-.03,0-.06,0-.08,0l-.23-.58c-.03-.09-.05-.17-.05-.25.02,0,.05,0,.09,0,.03,0,.07,0,.09,0,0,.08.01.14.04.2l.1.26Z"/>
      <path class="cls-2" d="M6.42,4.22s-.05,0-.09,0c-.03,0-.06,0-.09,0v-.84s.06,0,.09,0c.03,0,.07,0,.09,0v.84Z"/>
      <path class="cls-2" d="M7.17,3.54h-.23v.68s-.06,0-.09,0-.07,0-.09,0v-.68h-.23s0-.06,0-.08,0-.06,0-.08h.63s0,.06,0,.08,0,.06,0,.08"/>
      <path class="cls-2" d="M5.84,5.06l-.07-.24s-.02-.06-.03-.1h0s-.02.07-.03.1l-.07.24h.2ZM6.14,5.37s-.05,0-.1,0c-.03,0-.07,0-.09,0l-.06-.17h-.3l-.06.17s-.06,0-.09,0c-.03,0-.07,0-.09,0l.3-.84s.06,0,.09,0c.03,0,.07,0,.09,0l.32.84Z"/>
      <path class="cls-2" d="M7.11,5.37s-.05,0-.09,0-.07,0-.09,0v-.5s-.2.42-.2.42c-.01,0-.04,0-.06,0-.02,0-.05,0-.06,0l-.19-.42-.02.5s-.06,0-.09,0c-.02,0-.05,0-.08,0l.04-.84s.05,0,.07,0c.03,0,.06,0,.08,0l.25.57.25-.57s.05,0,.07,0c.03,0,.06,0,.08,0l.04.84Z"/>
      <path class="cls-2" d="M8.95,4.22h-.53v-.84h.52s0,.04,0,.07c0,.03,0,.05,0,.08h-.34v.18h.29s0,.04,0,.07c0,.03,0,.05,0,.08h-.29v.2h.35s0,.04,0,.07c0,.03,0,.05,0,.08"/>
      <path class="cls-2" d="M9.15,4l.16-.22-.15-.2c-.05-.06-.08-.12-.09-.19.02,0,.06,0,.09,0,.03,0,.07,0,.09,0,0,.05.04.1.07.15l.09.13.09-.12s.06-.1.06-.15c.02,0,.06,0,.09,0,.03,0,.07,0,.09,0-.01.08-.04.14-.09.21l-.13.18.16.22c.06.08.08.15.09.22-.02,0-.06,0-.09,0-.03,0-.07,0-.09,0,0-.06-.02-.11-.05-.15l-.12-.18-.12.17s-.05.1-.05.16c-.02,0-.06,0-.09,0-.03,0-.07,0-.09,0,0-.08.02-.14.08-.23"/>
      <path class="cls-2" d="M10.41,3.56c-.06-.02-.14-.03-.2-.03-.15,0-.24.1-.24.28,0,.16.07.27.24.27.06,0,.13-.01.19-.03,0,.02.01.06.01.08,0,.02,0,.05,0,.06-.06.03-.15.04-.22.04-.27,0-.41-.16-.41-.42s.15-.44.41-.44c.07,0,.15.02.21.04,0,.01,0,.04,0,.06,0,.04,0,.08-.01.09"/>
      <path class="cls-2" d="M8.71,4.68c-.11,0-.17.08-.17.28s.06.28.17.28.17-.08.17-.28-.06-.28-.17-.28M8.71,5.39c-.23,0-.36-.16-.36-.43s.12-.43.36-.43.36.16.36.43-.12.43-.36.43"/>
      <path class="cls-2" d="M9.69,5.37h-.52v-.84s.06,0,.09,0c.03,0,.07,0,.09,0v.68h.34s0,.04,0,.07c0,.03,0,.05,0,.08"/>
      <path class="cls-2" d="M10.41,5.06c0,.21-.08.33-.33.33s-.32-.12-.32-.33v-.52s.06,0,.09,0c.04,0,.07,0,.09,0v.53c0,.11.03.18.14.18s.15-.06.15-.18v-.53s.06,0,.09,0c.03,0,.07,0,.09,0v.52Z"/>
    </g>
  </g>
</svg>